<svg xmlns="http://www.w3.org/2000/svg" width="40" height="25" fill="currentColor" viewBox="0 0 39 25"><g id="surface1"><path d="M28.293 6.742h.289q.299-.001.598.004.457.006.914 0l.586.004h.273c.629.008 1.094.055 1.547.512.031.261.031.261.031.59l.004.375.004.418.004.437.004 1.184q.007.621.008 1.242.01 1.17.015 2.347.005 1.337.016 2.672.019 2.748.031 5.496l.39.055c1.102.16 1.102.16 1.384.305.175.824.175.824.007 1.199-.394.367-.82.297-1.34.293l-.34.004q-.567.005-1.136.004l-.805.004c-.718.008-1.441.008-2.164.011-.75 0-1.5.008-2.25.012q-2.25.011-4.5.016l-2.277.008q-4.002.018-8.004-.004l-.25-.004q-1.494-.008-2.988-.028l-.797-.011q-.535-.005-1.063-.016l-.312-.004c-.684-.015-.684-.015-.934-.219-.234-.296-.258-.539-.273-.91.137-.258.137-.258.351-.476.293-.067.293-.067.633-.075l.367-.007.383-.008.387-.012q.474-.011.95-.015l.12-.598h.117l.118-1.664h-.356v-.598l.121.477h.235l-.008-.278q-.017-.626-.028-1.246l-.015-.441-.008-.418q-.001-.194-.008-.387c.067-.324.067-.324.293-.547.508-.191.969-.187 1.508-.183h1.036c.355.004.706 0 1.062 0h1c.593.004 1.054.039 1.55.406.211.516.133 1.168.13 1.719v.328c0 .34-.005.683-.005 1.023v.7l-.007 1.707.363-.004h.476l.473-.004a18 18 0 0 1 1.762.125l-.027-.352a54 54 0 0 1-.114-3.355v-1.508l-.004-1.297c0-.336-.004-.672 0-1.008q-.005-.355-.004-.71v-.817c.032-.387.13-.707.266-1.07.586-.118 1.145-.141 1.738-.145l.297-.004h.613l.938-.008.598-.004.28-.004c.544.004.9.06 1.325.403.18.355.14.73.14 1.12l.005.278.007.598.05 5.262q.002.461.009.93l.004.566.004.261c-.004.45-.004.45.137.864l.191-.055c.742-.195 1.582-.305 2.293.055l-.004-.235a1367 1367 0 0 1-.027-5.66q-.005-1.369-.016-2.738l-.012-2.387q.001-.628-.004-1.262-.009-.701-.007-1.41l-.004-.422v-.726c.074-.277.074-.277.343-.492.438-.196.844-.192 1.313-.188M10.398 1.309c.032.218.032.218.028.488v.3l-.004.329v.336q-.001.531-.008 1.062.001.36-.004.719 0 .886-.012 1.766h.204q1.031-.005 2.062-.004.387-.005.774-.004l1.105-.004h.96c.216.012.216.012.333.133.125 1.308-.227 2.433-1.024 3.468a4.54 4.54 0 0 1-2.285 1.41c-.289-.062-.457-.167-.699-.335-.695-.395-1.71-.328-2.465-.133-.437.187-.793.48-1.156.785-.289.16-.289.16-.633.16-.437-.14-.77-.36-1.125-.648l-.203-.16C5.11 10.043 4.422 8.809 4.27 7.336c-.079-1.649.351-2.988 1.402-4.242l.172-.215c1.031-1.176 2.61-1.613 4.097-1.813.223.004.223.004.457.243" style="stroke:none;fill-rule:nonzero;fill:currentColor;fill-opacity:1"/><path d="M31.363 1.035c.582.516.867 1.008.918 1.785-.039.575-.277 1.004-.668 1.414-.523.43-1.047.543-1.715.528l-.449-.094c-.504-.066-.758.074-1.16.371l-.227.176q-.25.186-.503.37l-.25.188c-.36.262-.727.508-1.094.75l-.434.29-.23.156-.914.617-.344.234q-.333.23-.672.457l-.308.211-.278.188c-.226.133-.226.133-.46.133l-.032.433c-.086.668-.363 1.067-.871 1.5-.512.27-1.012.363-1.582.45v-.239l-.34-.055c-.367-.066-.367-.066-.605-.183-.254.105-.5.226-.743.351l-.226.118c-.242.125-.48.246-.723.37l-.937.481-.23.117c-2.083 1.063-2.083 1.063-2.458 1.063l-.117.238q-.481.17-.969.313c-.3.23-.34.515-.453.863-.2.434-.55.707-.945.965-.617.21-1.203.207-1.809-.035-.316-.204-.316-.204-.515-.403-.418-.238-.762-.094-1.2.031q-.13.03-.265.067c-.274.074-.547.144-.817.223l-.258.07-.246.07-.238.063c-.215.062-.43.12-.644.183-.497.114-.91.172-1.38-.039-.19-.23-.19-.23-.25-.644.06-.418.06-.418.247-.606.363-.215.738-.324 1.148-.43l.25-.07.785-.21c.262-.075.528-.145.79-.216q.245-.069.492-.132c.37-.102.632-.203.957-.422l.156-.332c.281-.54.668-.832 1.18-1.14a2.42 2.42 0 0 1 1.84.284l.37.239c.403.132.434.113.793-.067l.266-.129.586-.293q.476-.236.945-.472c.211-.106.418-.207.63-.313.398-.2.8-.398 1.198-.601q.499-.25 1.004-.485l.391-.187.328-.153c.258-.14.258-.14.34-.402.031-.234.031-.234.02-.477-.004-.382.152-.632.351-.949.582-.523 1.094-.847 1.895-.832.28.07.543.16.816.262l.246.098.215.085c.379.047.531-.109.836-.332l.34-.242.36-.265q.368-.263.737-.532l.364-.261q.651-.464 1.32-.903.892-.59 1.754-1.222c.219-.141.219-.141.457-.141l-.02-.2c-.035-.8.13-1.41.66-2.019.708-.617 1.82-.468 2.594-.078M11.7.117l.116.238c.27.04.27.04.586.047 1.168.09 2.051.516 2.844 1.383.883 1.078 1.215 2.07 1.3 3.453-.405.203-.87.137-1.316.133l-.324.004q-.34.001-.68-.004-.521-.001-1.042.004-.33.001-.657-.004l-.316.004c-.734-.004-.734-.004-.867-.137a48 48 0 0 1-.012-1.054l.004-.32q-.001-.507.004-1.012v-.688c0-.562.004-1.125.004-1.687l.355-.122Zm0 0" style="stroke:none;fill-rule:nonzero;fill:currentColor;fill-opacity:1"/><path d="m19.5 11.973.29.004h.913c.317.003.633 0 .95 0h.6l.286-.004.27.004h.234c.36.07.55.164.828.406.059.336.078.605.07.945v.293c-.003.32-.003.637-.011.957v.664l-.016 1.742c-.008.594-.008 1.188-.012 1.782a519 519 0 0 1-.03 3.496h-.118c-.129-1.059-.145-2.114-.156-3.18l-.008-.574-.016-1.492-.023-1.797q-.02-1.36-.031-2.719l-5.082-.117c.394-.403.527-.403 1.062-.41m-1.535 2.91c.234.234.234.234.265.539v.828l-.003.477v.488q.001.51-.004 1.02v1.308q.001.502-.004 1.004v1.156l-.004.39c-.016.29-.016.29-.133.407-.254.012-.508.012-.762.012h-.468l-.985-.008c-.402 0-.808 0-1.21-.004v-.238a16.7 16.7 0 0 1 3.308 0l-.027-.32c-.094-1.337-.11-2.669-.106-4.012q.001-.552-.004-1.11v-1.039c.004-.765.004-.765.137-.898" style="stroke:none;fill-rule:nonzero;fill:currentColor;fill-opacity:1"/><path d="M14.773 16.668c.207.516.122 1.14.102 1.695l-.008.317c-.008.332-.02.668-.027 1l-.02.68q-.022.831-.047 1.663h-.238l-.117-5.238-5.438-.117v-.121q1.095-.035 2.192-.063l.742-.023c.36-.012.715-.02 1.074-.031l.332-.012c1.059-.023 1.059-.023 1.453.25M24.816 5.477l.356.117-.961.687-.27.192-.777.55-.215.153c-.465.324-.465.324-.73.324v.238c-.555-.218-.555-.218-.809-.363-.5-.223-1.023-.2-1.555-.113-.464.246-.816.582-1.183.953.035-.422.086-.567.398-.856.543-.375.946-.586 1.614-.574.28.07.543.16.816.262l.246.098.215.085c.387.047.55-.125.86-.351l.347-.246.36-.266.702-.508.317-.23ZM27.3 6.785q.481-.046.962-.039h.289c.203.004.406.004.61.008q.46.005.929.004l.59.004h.277c.418.008.79.031 1.188.144v.239h-5.083ZM8.629 16.43l.234.117-.117.238q-.019.264-.02.527l-.007.329-.004.359-.012.742c-.004.39-.008.785-.015 1.176q-.005.564-.016 1.133l-.004.355-.004.328-.004.293c-.031.235-.031.235-.27.473v-2.617h-.355v-.598l.121.477h.235c0-.094-.004-.184-.004-.282l-.012-1.25-.004-.44-.004-.423-.004-.39c.028-.309.028-.309.266-.547m9.336-1.547c.234.234.234.234.262.539v.832l-.004.476v.489q-.001.64-.008 1.281l-.004 1.313q0 1.281-.012 2.57h-.117v-4.406l-.238-.122-.004-1.418-.004-.41-.004-.39v-.36c.012-.277.012-.277.133-.394m-8.156-4.418h.273l.281.004h.285c.23.004.465.004.696.008v.117l-.387.039-.512.058-.258.028c-.734.082-1.285.32-1.855.8-.293.211-.39.266-.762.29a4 4 0 0 1-1.308-.856v-.238c.308.14.55.293.82.496.332.238.332.238.645.234.394-.172.699-.414 1.035-.687.343-.254.636-.297 1.047-.293m18.32-8.203h.234c.075.34.13.61.117.953-.382.562-.996.867-1.566 1.223-.394.25-.773.523-1.152.8l-.235-.12c.422-.47.918-.806 1.434-1.161l.262-.18.25-.175.226-.157c.192-.113.192-.113.43-.113ZM8.035 1.785l-.25.13c-1.324.694-2.07 1.42-2.82 2.73-.082-.207-.082-.207-.121-.477.222-.398.531-.73.828-1.074l.203-.235c.535-.578 1.328-1.375 2.16-1.074m24.227 20.36c.246-.008.488-.012.734-.016l.41-.008c.383.02.64.094.985.262.148.906.148.906-.118 1.308h-.238v-1.074l-1.773-.117ZM14.3 1.191c.68.098 1.024.668 1.419 1.192.492.765.664 1.347.59 2.262a4 4 0 0 1-.375-1.036c-.172-.609-.47-1.015-.875-1.488-.168-.215-.168-.215-.168-.453l-.23-.105c-.243-.133-.243-.133-.36-.372m3.781 8.571c-.98.633-1.965 1.074-3.074 1.43v-.239q.633-.335 1.273-.664l.364-.191.351-.18.32-.168c.32-.117.454-.11.766.012M11.7.117l.116.238c.305.047.305.047.653.063.36.016.36.016.648.059l.121.238-1.656-.121v1.43l-.238-.118V.476l.355-.12Zm3.902 6.192.234.12c.027.813.016 1.637-.356 2.38h-.234l.059-.301a8.5 8.5 0 0 0 .066-1.29l-.004-.448-.004-.34Zm-3.184.039.363.011.348.016.32.016c.262.039.262.039.496.277h-3.074l-.117-.238c.55-.184 1.09-.11 1.664-.082m-3.555 8.535c.59.234.59.234.871.37.696.231 1.297.087 1.965-.136v.238c-.594.372-1.09.454-1.773.36a5.7 5.7 0 0 1-1.063-.598Zm-.59 7.379v.238H5.438l.117-.238c.906-.157 1.812-.133 2.718 0M4.61 8.094c.199.304.347.59.503.918a8 8 0 0 0 1.032 1.582c-.348-.04-.457-.102-.692-.371l-.207-.32q-.104-.154-.215-.313c-.332-.54-.453-.848-.422-1.496M31.438 3.93l.117.355c-.516.387-1.02.5-1.657.477a4.3 4.3 0 0 1-.824-.356c.508-.172.988-.11 1.52-.09.402-.035.55-.113.843-.386M23.52 7.977h.234v.238c-.2.152-.2.152-.457.312l-.258.16c-.23.122-.23.122-.465.122l-.12.953h-.235v-1.07l.254-.13.328-.164.328-.16c.262-.12.262-.12.39-.261m3.899-2.5c-.152.46-.324.52-.73.765-.375.23-.747.461-1.102.723l-.297.18-.352-.122.922-.64.266-.184.254-.176.234-.16c.559-.386.559-.386.805-.386m2.48-4.645c.563-.043.957-.055 1.465.211.492.422.492.422.664.742.024.328.024.328 0 .598-.238-.238-.238-.238-.39-.531-.422-.641-1.032-.743-1.739-.899ZM4.02 14.523c.25.047.25.047.472.122l-.355.238c-.04.3-.04.3 0 .594.23.234.633.199.945.238l-.117.238c-.38.024-.645.027-.992-.129-.192-.23-.192-.23-.235-.652.043-.41.043-.41.282-.649m6.027-2.976c.758.035 1.254.172 1.89.598l-.12.355v-.238c-.583-.211-1.169-.348-1.77-.477Zm0 0" style="stroke:none;fill-rule:nonzero;fill:currentColor;fill-opacity:1"/><path d="M32.027 2.023c.239.418.258.704.184 1.188-.106.383-.297.64-.54.957l-.116-.36.234-.355q.08-.369.137-.738l.058-.39Zm-20.562 8.571.312.031.418.04.41.034c.36.016.641-.015.985-.105-.309.367-.606.578-1.063.715-.386-.149-.722-.36-1.062-.594Zm-6.973-5h.117v2.383c-.43-.864-.386-1.489-.117-2.383m13.473 5.476v.239a52 52 0 0 1-.8.425l-.227.121c-.57.297-.57.297-.891.239l-.211-.07.93-.477.27-.137.253-.129.238-.12c.2-.09.2-.09.438-.09m-8.156-.606h.273l.281.004h.285c.23.004.465.004.696.008v.117c-.196.023-.196.023-.395.05l-.52.063-.261.031c-.402.051-.793.11-1.188.215v-.36c.32-.105.504-.132.829-.128M24.11 22.023l.117.239.59-.117v.238h1.421v.117q-.556.011-1.11.016l-.32.004-.304.003-.281.004c-.23-.027-.23-.027-.47-.265h.356ZM27.09 4.09l.21.078-.687.477-.386.265c-.344.207-.344.207-.7.207a7 7 0 0 1 .887-.808l.203-.16c.211-.102.211-.102.473-.06M5.316 22.262l.239.12-.239 1.071.239.117-.356.121c-.203-.316-.238-.464-.207-.847.09-.344.09-.344.324-.582m9.457-10.832-.753.355-.426.203c-.356.157-.356.157-.594.157v-.239q.31-.158.621-.304l.348-.172c.344-.125.472-.133.804 0M30.492.715v.355l-1.539.239c.356-.477.356-.477.57-.567.325-.035.641-.035.97-.027M8.746 14.762c-.668.43-1.098.492-1.89.476.328-.222.57-.324.945-.437l.308-.102c.282-.054.282-.054.637.063m6.383-5.832.117.355c-.16.235-.16.235-.39.485l-.231.25q-.218.228-.441.457l-.356-.122.164-.128c.477-.395.82-.762 1.137-1.297m-5.395 2.879.192.097c-.559.356-.559.356-.824.356l-.106.289c-.133.304-.133.304-.367.426.023-.438.133-.653.45-.938.374-.254.374-.254.655-.23m10.004-1.094h1.063v.355l-.711.121v-.238h-.352Zm-.121-.121-.207.047c-.27.062-.27.062-.5.207-.289.129-.418.09-.71-.016h.238v-.238c.445-.309.699-.196 1.18 0m.019-3.403.218.07-.199.15-.258.194-.257.192c-.243.18-.243.18-.47.418.036-.418.099-.574.392-.88.32-.19.32-.19.574-.144" style="stroke:none;fill-rule:nonzero;fill:currentColor;fill-opacity:1"/><path d="M25.172 22.023c.293.02.293.02.613.098l.324.074.246.067v.12h-1.539Zm3.664-17.5v.239c-.195.156-.195.156-.45.32l-.253.164c-.242.11-.242.11-.598-.008q.257-.18.52-.355l.289-.203c.258-.157.258-.157.492-.157M12.29 13.809h.12c-.09.789-.09.789-.355 1.191h-.239l.172-.527.094-.297c.09-.246.09-.246.207-.367m6.149-5.477h.234v1.074l-.117-.238h-.239Zm-7.567 3.453c.375-.031.547-.027.867.18l.2.18-.122.355v-.238l-.34-.106c-.367-.133-.367-.133-.605-.37m13-5.716.238.121c-.265.305-.265.305-.59.594l-.472-.117Zm-8.625.477v.121c-.785.027-.785.027-1.184-.238.485-.114.762-.16 1.184.117m1.063-2.5h.117l.12 1.191-.237.117c-.098-.476-.125-.832 0-1.308m-5.317.836h.235v.355l-.235-.12ZM8.629 15l.234.355H8.63Zm3.309-3.93.351.239h-.351ZM10.992.117h.352l-.117.238Zm8.391 10.836.355.117Zm9.926-6.191.355.12ZM8.156 12.738l.235.117ZM6.5 11.309l.238.12Zm13.238-.239.235.121Zm-8.746-7.14.235.117Zm17.254-2.739.234.118Zm0 0" style="stroke:none;fill-rule:nonzero;fill:currentColor;fill-opacity:1"/></g></svg>
