<svg xmlns="http://www.w3.org/2000/svg" width="40" height="25" fill="currentColor" viewBox="0 0 39 25"><g id="surface1"><path d="M9.344 2.016c2.133-.082 4.574.043 6.61.722l.12.239.707.222c.457.172.883.383 1.317.602l.238.12q.772.401 1.52.84l.222-.163c3.895-2.813 9.117-2.977 13.695-2.254.66.12 1.243.234 1.801.633.242.37.266.449.262.867v.308l-.004.336v.344l-.008 1.082-.004.734-.011 1.805h.238l-.059.285c-.074.52-.074 1.024-.07 1.547q.005.343.004.688l.004.363a244 244 0 0 1-.059 6.758l-.008.386q-.021 1.057-.05 2.114h-.946v-.239l-1.062-.117-.117.239-.121-.36-.41-.02-.852-.046a44 44 0 0 1-1.602-.117c-2.242-.176-4.797-.23-6.945.543l-.234.238v-.238l-.215.117c-.258.12-.258.12-.614.12v.24l-.238.116c.313-.074.621-.152.934-.23l.265-.067c.477-.113.477-.113.93-.296 3.953-.403 7.828.015 11.7.832A5.4 5.4 0 0 0 36.394 20c.007-.324.058-.633.125-.953l-.356-.117h.356l-.028-.266c-.094-1.102-.101-2.191-.086-3.297v-.36l.004-.327c0-.293 0-.293-.129-.633l.117-.594q.017-.365.016-.73l.004-.438-.004-.473.004-.484-.004-1.012V9.02a43 43 0 0 0 0-1l.004-.711-.004-.434v-.383c.008-.3.008-.3-.133-.539h.239l-.067-.379c-.047-.402-.039-.664.067-1.05.574.128 1.05.238 1.535.593.152.313.136.543.14.89l.008.415.008.46.008.481c.004.438.011.871.015 1.309l.012.816c.035 2.64.059 5.282.059 7.922v.73q.007 1.466-.016 2.93v.309q-.007.381-.02.762l-.015.386c-.113.457-.305.641-.672.926-.336.063-.336.063-.703.043l-.41-.016-.422-.027-.406-.023q-.62-.047-1.235-.098c-1.054-.082-2.093-.145-3.148-.113-.293-.004-.293-.004-.531-.125a11 11 0 0 0-.5-.035l-.317-.012-.34-.016-.355-.015-.742-.032q-.562-.022-1.125-.047a134 134 0 0 0-1.754-.07l-.563-.02c-1.058-.042-1.058-.042-2.031.352-1.766.988-3.91.88-5.836.414-.418-.133-.707-.258-1.059-.527-.472-.277-.84-.285-1.37-.266l-.286.004-.976.031-.793.028q-.78.024-1.559.055l-.328.015c-.293.016-.293.016-.629.14q-.34.008-.68-.003c-1.242-.008-2.476.094-3.714.183-.364.028-.727.051-1.09.079l-.672.046q-.47.031-.934.055l-.351.016c-.172.004-.172.004-.348.011l-.316.008c-.352-.043-.504-.148-.758-.394-.153-.457-.14-.895-.145-1.375l-.004-.317q-.001-.516-.007-1.039l-.008-.73c-.004-.516-.012-1.031-.016-1.543-.004-.649-.012-1.297-.016-1.945-.023-2.305-.046-4.606-.046-6.91V8.78c.004-3.14.004-3.14.476-3.781.496-.312.824-.375 1.418-.477V21.43l1.89-.477a47 47 0 0 1 1.626-.262l.402-.058c3.586-.52 7.117-.38 10.621.558q-.497-.204-1-.402l-.277-.113c-3.578-1.426-8.207-.934-11.871-.145-.324.063-.324.063-.68.063-.148-2.625-.137-5.25-.133-7.88v-1.91q-.006-.75 0-1.5v-.702a94 94 0 0 1 .059-3.782l.012-.347c.023-.57.046-1.09.296-1.618.645-.32 1.297-.445 2.004-.55l.297-.043c1.047-.153 2.09-.207 3.145-.246m12.164 3.34-.281.148c-.29.172-.512.328-.602.668-.059.719-.078 1.43-.078 2.148v11.332c.004.239.004.239.137.465q.11-.041.226-.09c4.344-1.738 8.531-1.73 13.125-1.218V4.047c-1.855-.317-1.855-.317-3.715-.461l-.808-.023c-2.848-.098-5.504.394-8.004 1.792M5.555 4.047c-.137.277-.133.433-.133.738v9.699c-.004 1.446.004 2.883.133 4.325q.98-.087 1.96-.184c3.942-.367 7.465-.117 11.157 1.375.18-.184.133-.344.133-.598l.004-.312-.004-.348.004-.363q.001-.598-.004-1.195l.004-.829q.001-.873-.004-1.746-.001-1.113.004-2.226V9.844q.001-.579-.004-1.156l.004-.336a40 40 0 0 0-.02-.97L18.781 7l-.02-.387-.015-.351c-.094-.39-.242-.52-.555-.762a11 11 0 0 0-.699-.383l-.21-.105c-3.278-1.64-8.223-2.184-11.727-.965" style="stroke:none;fill-rule:nonzero;fill:currentColor;fill-opacity:1"/><path d="m12.105 6.504.332-.02c.446.086.66.301.918.66.196.407.344.829.493 1.258l.136.375q.213.593.418 1.184l.418 1.168.27.762c.207.582.418 1.16.648 1.73l.117.297q.111.27.227.539c.184.461.293.781.11 1.258-.333.168-.622.144-.993.148l-.406.008c-.418-.043-.566-.086-.848-.394-.148-.368-.148-.368-.265-.782l-.121-.418c-.086-.347-.086-.347-.086-.586H10.52l-.356 1.426c-.355.598-.355.598-.59.715q-.45.041-.902.066l-.254.016q-.309.022-.617.04c-.176-.747-.035-1.224.242-1.927l.117-.316q.194-.503.387-1.012l.262-.691q.258-.688.523-1.375l.621-1.649q.16-.42.313-.836l.144-.382.13-.34.108-.293c.106-.227.106-.227.344-.465.367-.125.727-.152 1.113-.164m-.168 2.543q-.21.616-.414 1.226l-.12.356-.114.336-.105.312c-.09.282-.09.282-.075.63H13l-.945-2.86Zm15.961 1.16h.262c1.012 0 2.016.016 3.02.18l.246.039c.488.097.781.238 1.074.644-.031.45-.031.45-.117.836-1.012.016-2-.031-3.008-.129-1.969-.168-3.871-.097-5.816.266l-.278.05-.242.048c-.297.004-.457-.075-.703-.235-.117-.285-.117-.285-.117-.597.375-.508.836-.614 1.426-.735l.25-.062c1.316-.293 2.66-.301 4.003-.305m2.028-2.844q.456.025.918.032l.265.007.688.02c.348.078.348.078.578.355.168.426.113.707.008 1.153l-.238.238c-.262-.027-.262-.027-.583-.098-1.23-.273-2.476-.285-3.73-.28h-.473c-1.312.003-2.59.112-3.89.3l-.29.039-.261.035c-.227.004-.227.004-.54-.191-.16-.282-.16-.282-.167-.586.172-.395.332-.461.715-.649.336-.09.676-.144 1.02-.195l.3-.043c1.902-.27 3.766-.246 5.68-.137m-2.867 5.696q.368-.001.73-.008h.895c.437.05.722.164 1.097.402.117.356.117.356.117.715l-.234.355c-.32.04-.32.04-.723.028l-.453-.008-.238-.004c-.402-.012-.809-.016-1.21-.02h-.243a16.6 16.6 0 0 0-3.399.364c-.746.062-.746.062-1.07-.203-.11-.274-.11-.274-.035-.575.25-.464.582-.511 1.066-.664 1.207-.332 2.453-.386 3.7-.382M5.2 9.168l.355.117v9.524l.59-.118q.406-.012.804-.007l.418.003.317.004v.118c-.809.214-1.536.265-2.368.238-.144-1.031-.132-2.063-.128-3.102v-.59q.004-.767.003-1.535l.004-1.574.004-3.078m15.246-3.215h.117c.102.777.137 1.531.133 2.317l.004.363v1.996q.001.862-.004 1.719-.001 1.1.004 2.203v2.504q.001.569-.004 1.136l.004.336a10.4 10.4 0 0 1-.137 1.711h-.234l-.008-5.484V12.21q-.005-1.228-.004-2.457v-.938c-.003-.437-.003-.87-.003-1.308v-1.07c.015-.247.015-.247.132-.485m15.246-2.62h.118v5.121h.238l-.059.285c-.074.52-.074 1.024-.07 1.547q.005.343.004.688l.004.363a244 244 0 0 1-.059 6.758l-.008.386q-.021 1.057-.05 2.114l-.473-.117h.355Zm1.063 2.023h.117v15.36h-.117v-6.547h-.234l-.122.238c-.128-.398-.086-.554 0-.953v-.36h.239Zm0 0" style="stroke:none;fill-rule:nonzero;fill:currentColor;fill-opacity:1"/><path d="M36.637 4.645c.562.054.96.136 1.418.472.164.332.133.598.133.965v.465l-.004.5v.512q.001.673-.004 1.347v1.375c-.004.899-.004 1.797-.008 2.696h-.117a6 6 0 0 1-.14-1.309l-.009-.426-.008-.457-.007-.469c-.004-.41-.012-.82-.016-1.23-.008-.422-.016-.84-.02-1.262q-.022-1.23-.039-2.469l-.39-.168-.219-.097a8 8 0 0 0-.57-.207Zm-.117 9.523h.234l.008 2.812v.961q.005.688.004 1.375l.004.434v.758a5.3 5.3 0 0 1-.133.922h-.117a5.8 5.8 0 0 1 0-2.383l-.356-.117h.356l-.028-.285q-.105-1.283-.105-2.567l-.004-.285a10 10 0 0 1 .137-1.625M31.828 2.129l.402.027.38.031.34.028.26.047.118.238-6.5-.117v-.238a32.4 32.4 0 0 1 5-.016m4.809 3.465h.117v7.976c-.461-.925-.371-1.972-.367-2.988l-.004-.379c0-.637.043-1.238.137-1.871.03-.473.046-.945.066-1.418l.016-.387zM13.59 2.262V2.5H6.973l.117-.355c2.2-.16 4.308-.141 6.5.117m18.2 5.355.237.238-.265-.023c-1.383-.11-2.766-.133-4.153-.16l-.746-.016c-.601-.011-1.207-.027-1.808-.039l.117-.234c2.129-.168 4.535-.336 6.617.234M8.629 22.855l-.121.239c-.211.043-.211.043-.492.062l-.317.02-.344.02-.355.023-.75.047-1.137.07-.726.047-.34.02c-.758.046-1.516.058-2.274.05v-.238l2.016-.152.684-.055c1.386-.106 2.761-.18 4.156-.153m1.891-9.523h3.07l.289.813.09.253q.171.479.332.957l1.535.239v.12q-.406.013-.813.016l-.457.008c-.382-.023-.382-.023-.62-.261q-.137-.387-.25-.774l-.13-.422c-.093-.351-.093-.351-.093-.59h-.22l-.991.008h-.348l-.336.004h-.305a3 3 0 0 1-.753-.133Zm27.535 7.738h.117q.023.427.039.856l.012.246c.011.457-.035.664-.309 1.039-.371.27-.504.312-.953.293l-.398-.016-.516-.035-.36-.023q-.603-.036-1.207-.082l-.406-.028-.379-.03-.343-.028-.262-.047-.117-.238q1.09-.024 2.18.058c1.39.188 1.39.188 2.663-.18.067-.296.114-.601.141-.906l.031-.254c.024-.207.043-.418.067-.625M23.637 22.5a71 71 0 0 1 3.523.05l.442.016c.812.028 1.613.079 2.418.172v.117c-1.243.118-2.47.122-3.715.075l-.426-.012c-.79-.035-1.574-.09-2.36-.18ZM9.453 20.355c1.793-.027 3.543 0 5.32.239l.118.36-.797-.056-.45-.027c-.406-.039-.406-.039-.62-.098-.352-.082-.696-.085-1.055-.097l-.465-.016-.484-.012-.489-.015-1.195-.04Zm22.809-1.664h-6.38c.919-.925 5.298-.546 6.38 0m-17.77 3.778c.91-.04 1.465.078 2.235.57.406.242.777.328 1.238.414v.117c-.934.067-1.48-.199-2.246-.715-.332-.023-.332-.023-.723-.003a46 46 0 0 1-2.637-.055l-.406-.016q-.48-.02-.96-.043v-.12q1.29-.055 2.585-.102c.305-.012.61-.032.914-.047m-2.676-13.66c.223.02.223.02.473.12.145.27.145.27.258.622l.129.386.125.407.133.402c.32.992.32.992.183 1.399h-2.125v-.122H13l-.176-.48-.23-.629-.117-.316-.11-.305-.105-.281q-.106-.303-.207-.606l-.473.832c-.137-.414-.094-.515.05-.914l.106-.293Zm11.582-5.594-.539.273-.3.157c-.247.117-.493.23-.747.332-.574.257-1.074.613-1.593.968-.364.172-.364.172-.7.098-.257-.16-.257-.16-.374-.398l.32.082c.476.043.598-.047.965-.344.5-.38.98-.68 1.55-.93l.254-.113c.442-.184.711-.274 1.164-.125M9.691 18.332c3.196-.027 3.196-.027 3.899.121l.12.238c-2.952.024-2.952.024-4.136-.12ZM26 10.238q.786-.011 1.574-.011l.535-.008c1.153-.012 2.32-.024 3.446.258l.117.238a14 14 0 0 1-2.125-.121v-.117L26 10.355ZM24.7 20l-.118.238c-.277.082-.55.16-.828.239l-.234.238v-.238l-.215.117c-.258.12-.258.12-.614.12v.24l-.636.245-.356.137c-.308.094-.308.094-.543-.027.496-.32 1.012-.555 1.551-.79l.254-.109c.617-.27 1.066-.426 1.738-.41m4.375-6.668c.278-.02.278-.02.59 0 .234.36.234.36.2.73-.083.344-.083.344-.2.461-.832.051-1.656-.02-2.48-.117v-.238l2.363.117v-.594c-.227-.218-.227-.218-.473-.359M15.246 4.047c.64.07 1.14.297 1.715.574l.262.125c.515.246.984.52 1.449.848l-.117.36-.274-.184c-.972-.63-1.949-1.086-3.035-1.485Zm-4.824-.727.3-.004a13 13 0 0 1 1.805.137v.117c-1.543.149-3.066.184-4.609 0v-.117c.836-.11 1.664-.133 2.504-.133m10.023 7.633h.117c.266 1.645.102 3.344 0 5h-.117c-.133-1.672-.195-3.332 0-5m-6.145-.476c.434.289.473.468.65.957l.155.433.329.91c.402 1.114.402 1.114.402 1.391h-.234l-.559-1.465-.188-.496-.27-.715-.167-.433c-.117-.344-.117-.344-.117-.582m9.336 3.093c-.293.293-.555.36-.946.477v.476h1.418l-.117.239c-.472.14-.933.164-1.418.12-.246-.202-.246-.202-.355-.476.074-.355.152-.535.441-.754.336-.101.63-.097.977-.082" style="stroke:none;fill-rule:nonzero;fill:currentColor;fill-opacity:1"/><path d="M36.637 5.594h.117v5h-.117a39 39 0 0 1-.125-.66l-.07-.375c-.047-.438.011-.79.078-1.227.03-.473.046-.945.066-1.418l.016-.387zM7.8 3.57c-.273.278-.378.285-.75.34l-.304.047-.64.094-.79.117v1.547H5.2V3.93a8.3 8.3 0 0 1 2.602-.36M23.637 22.5a38 38 0 0 1 3.547.117v.121q-.588.037-1.168.067l-.328.02a12 12 0 0 1-2.168-.087Zm8.863-2.738.547.066.398.055V20c-1.191.012-2.36-.004-3.547-.117v-.121c.891-.102 1.715-.125 2.602 0m-7.113.758.25.023q.298.026.601.05c-.765.403-1.523.376-2.367.36v-.238c.516-.266.957-.246 1.516-.195m-11.957-.067c.53.004.96.086 1.46.262v.238l-.796-.047-.45-.023c-.363-.043-.574-.098-.882-.29.195-.19.402-.136.668-.14m9.968 2.524c-.734.437-1.285.75-2.164.73l-.382-.008-.29-.008v-.12l.274-.036c.727-.105 1.34-.246 1.992-.594.219-.086.219-.086.57.036M16.781 3.332c.543.066.93.211 1.403.484l.347.2.258.152v.238c-.727-.199-1.355-.582-2.008-.953Zm-2.953 11.074.235.117q.13.417.238.832l1.535.239v.12q-.406.013-.813.016l-.457.008c-.382-.023-.382-.023-.62-.261-.048-.258-.048-.258-.075-.551l-.027-.297Zm2.246 5.949a9.6 9.6 0 0 1 2.125.836c-.465.184-.75.043-1.195-.148l-.379-.16c-.316-.168-.316-.168-.55-.528m-2.958-13.21h.238q.147.393.293.793l.086.226c.157.43.246.785.211 1.242-.246-.37-.386-.719-.547-1.133l-.16-.414c-.12-.359-.12-.359-.12-.714m-2.247-.36.473.121-.156.133c-.258.293-.372.594-.516.961l-.156.39-.118.301c-.136-.343-.117-.48 0-.836l.172-.386.168-.387ZM26.71 2.383V2.5l-.843.18-.238.05a5.7 5.7 0 0 1-1.402.125c.117-.238.117-.238.511-.37.649-.153 1.305-.126 1.973-.102m-4.02 17.023c-.18.356-.445.395-.804.543l-.38.156a5.6 5.6 0 0 1-.823.25c.554-.625 1.144-1.03 2.007-.949M2.953 4.523v.36l-.441.086c-.45.113-.668.27-.977.625h-.234c.113-.426.191-.567.574-.801.371-.152.68-.27 1.078-.27m22.219-.714c-.117.238-.117.238-.445.367l-.41.125-.41.129a3.2 3.2 0 0 1-.981.093 2.74 2.74 0 0 1 1.058-.558l.297-.09c.309-.066.578-.078.89-.066m-8.624 15.476c.754.055 1.332.258 2.008.598v.234c-.692-.195-1.356-.41-2.008-.71Zm20.09-14.64c.554.054.972.117 1.418.472.097.262.097.262.117.477h-.234l-.2-.223c-.343-.316-.652-.387-1.101-.488ZM27.3 19.762v.12c-.831.079-1.648.134-2.484.118.832-.434 1.579-.344 2.485-.238m-2.719-9.168c-.402.273-.668.308-1.145.375l-.421.058-.325.043v-.238c.649-.223 1.207-.266 1.891-.238m-9.453 10.238c.73-.039 1.215.066 1.89.36v.117a12 12 0 0 1-1.89-.356Zm17.254-2.141c1.246-.043 1.246-.043 1.773.239v.117c-.64.027-1.156-.063-1.773-.238Zm-9.93-9.882h1.418l-.117.238c-.234.055-.234.055-.524.082l-.289.031c-.25.008-.25.008-.488-.113Zm1.418-1.071c-.336.227-.582.32-.965.43-.11.031-.215.062-.324.098l-.246.066c.117-.355.117-.355.305-.496.418-.14.789-.113 1.23-.098M11.465 6.547h1.297l.12.36-1.538-.122ZM5.406 20.945l.285.004.22.004c-.579.3-1.005.367-1.657.356.117-.239.117-.239.328-.313.281-.047.54-.055.824-.05m28.75-18.329c.586-.031.95-.015 1.418.36l.117.355-.203-.105a6 6 0 0 0-.832-.325c-.14-.047-.14-.047-.285-.093l-.215-.07ZM13.945 22.5h1.657v.117l-1.657.238Zm22.453-9.406h.239l.117 1.074h-.234l-.122.238c-.128-.398-.086-.554 0-.953Zm-13.945-1.309h1.3l-.116.238c-.453.094-.742.149-1.184 0Zm9.337-1.07.593.117.117.836-.473.117.082-.336c.078-.375.078-.375-.132-.601ZM3.688 21.3l.449.009c-.489.328-.715.37-1.301.359v-.238c.324-.11.516-.133.852-.13m32.832-1.417h.234c.008.535.012 1.02-.117 1.547h-.117c-.122-.551-.102-.996 0-1.547m-22.692-1.192q.312-.018.629-.023l.352-.012c.32.035.32.035.539.215l.132.176c-1.109-.113-1.109-.113-1.652-.238Zm-3.664-9.882c.117.238.117.238.059.46l-.098.254-.094.254c-.105.223-.105.223-.34.461.055-.57.145-.957.473-1.43m27.891 4.169.234.476-.117.117c-.027.242-.047.48-.067.723l-.027.398-.023.309h-.117q-.007-.405-.008-.812l-.004-.454c.011-.402.011-.402.129-.757m-27.891.593c.234.36.234.36.215.657-.098.296-.098.296-.453.656Zm6.973 7.739c.398.039.398.039.828.12l.234.356a3.1 3.1 0 0 1-1.062-.355Zm15.718-1.071.473.117Zm-16.902 3.094.238.121-.238.117Zm15.957-.117.352.117Zm4.254-2.86h.234l-.117.239Zm-11.109-.117h.234l-.117.239Zm-10.637-4.285.355.117Zm14.301-1.308.355.117Zm7.445-4.883.234.238h-.234Zm-5.082-.715.355.121Zm-3.309-.238.356.12ZM16.191 23.453l.235.117Zm-10.636-.121.234.121ZM3.191 21.07l.235.121Zm2.954-.832.238.117Zm21.745-.121.239.121ZM5.672 18.57l.238.121Zm2.957-2.617.234.117Zm7.324-.121.238.121Zm13.356-1.187.238.117Zm2.246-4.29.234.122Zm4.371-.832.238.122Zm-8.863-.714.238.12Zm2.011-7.024.235.121Zm0 0" style="stroke:none;fill-rule:nonzero;fill:currentColor;fill-opacity:1"/></g></svg>