<svg xmlns="http://www.w3.org/2000/svg" width="40" height="25" fill="currentColor" viewBox="0 0 39 25"><g id="surface1"><path d="M16.547 6.906v.239c.976.433 1.933.418 2.984.414q.45 0 .899.011c1.172.008 2.027-.133 3.09-.664 2.582-.781 5.601-.785 8.035.477 2.09 1.168 3.449 3.14 4.113 5.445.73 2.695 1.598 6.414.328 9.067-.535.94-1.226 1.52-2.203 1.96-1.676.36-3.14.051-4.602-.835-.75-.512-1.378-1.18-2.007-1.829q-.345-.352-.692-.699l-.426-.437-.191-.203-.172-.176c-.488-.422-.988-.434-1.613-.45l-.297-.011a155 155 0 0 0-2.695-.055 70 70 0 0 1-1.805-.039c-2.984-.254-2.984-.254-5.586.899a7.3 7.3 0 0 0-.816 1.105l-.13.184h-.234l-.117.359C11.055 22.922 9.457 24 7.563 24.047c-1.208-.07-2.352-.375-3.192-1.309-1.453-2.008-1.293-4.441-.945-6.785.504-2.992 1.39-5.562 3.547-7.738l.312-.332c.277-.266.277-.266.633-.383q.269-.14.531-.281c2.477-1.258 5.473-.86 8.098-.313m11.137 2.188c-.204.265-.243.449-.266.789.086.422.195.664.473.996.511.277.968.289 1.535.191.347-.21.531-.347.71-.715.063-.683.063-.683-.206-1.293-.367-.351-.582-.472-1.086-.527-.496.05-.774.254-1.16.559m-16.813.312c-.363.774-.254 1.66-.234 2.5l-.39-.035-.513-.039-.254-.023c-.539-.043-.937-.004-1.445.214-.246.25-.14.778-.14 1.125l-.004.286q.002.364.027.734c.394.395.863.355 1.402.367q.24.001.473-.004h.246l.598-.008c.074.797.133 1.582.117 2.383.418.258.758.27 1.242.266l.402.004c.457-.04.457-.04.84-.27.082-.316.082-.316.086-.68l.02-.386c.011-.399.02-.797.011-1.195.446-.227 1.02-.125 1.512-.118.395.004.711.004 1.086-.12.168-.337.145-.626.149-1l.011-.41c-.043-.407-.125-.563-.394-.852l.234-.122c-.457-.152-.887-.125-1.363-.117-.969.016-.969.016-1.235-.12l-.015-.458-.024-.59-.007-.3-.012-.293-.008-.266c-.066-.297-.168-.406-.406-.594-.332-.078-.332-.078-.695-.098l-.368-.03c-.379.011-.617.07-.949.25m13.711 2.5c-.191.382-.191.773-.117 1.187.27.355.27.355.59.597l.117.118c.601.078 1.043.101 1.543-.258.238-.348.348-.512.348-.934-.141-.457-.258-.746-.622-1.062-.753-.293-1.242-.153-1.859.351m6.027.117c-.152.497-.152.743.028 1.227.195.348.195.348.562.559.633.093 1.14.113 1.672-.258.227-.348.34-.516.34-.934-.137-.41-.27-.73-.547-1.062-.812-.364-1.492-.196-2.055.468m-14.656.122.121.238Zm11.938 2.378c-.32.325-.442.614-.473 1.07.117.528.27.876.71 1.192.544.133.81.168 1.337-.023.414-.278.414-.278.672-.692.093-.566.09-.941-.242-1.422-.735-.515-1.22-.578-2.004-.125" style="stroke:none;fill-rule:nonzero;fill:currentColor;fill-opacity:1"/><path d="M27.063 1.191h.238v.239l.59.117c.273.738.273.738.109 1.168-.39.445-.86.523-1.43.578l-.351.039-.375.04c-2.461.28-2.461.28-4.508 1.573-.406.52-.598 1.094-.773 1.723h-.235l-.117.238-.348-.062c-.445-.067-.87-.059-1.32-.04-.227-.019-.227-.019-.461-.257h.234l.016-.328c.18-1.223.973-2.367 1.93-3.11 1.828-1.246 3.875-1.515 6.02-1.722.425-.008.425-.008.78-.196M14.773 18.93q1.987-.025 3.973-.032.921-.004 1.844-.015l1.781-.012.68-.004c.316-.008.637-.008.953-.008l.281-.004c.86.008 1.402.387 2.031.95l.274.289.312.324.63.664c1.55 1.602 3.058 2.566 5.323 2.61-.132.18-.132.18-.355.355-1.574.078-3.09-.735-4.227-1.77a36 36 0 0 1-1.09-1.086q-.34-.35-.68-.695c-.14-.144-.276-.289-.417-.433l-.191-.2-.165-.172c-.597-.488-1.168-.578-1.914-.574l-.296-.004c-.325-.004-.645-.008-.97-.008q-.335 0-.671-.007l-1.766-.012-1.804-.012q-1.768-.017-3.536-.027ZM31.672 7.617c1.437.403 2.34 1.754 3.066 2.988.703 1.27 1.274 2.688 1.188 4.157-.301-.301-.309-.504-.39-.922-.493-2.223-1.438-4.38-3.384-5.664l-.277-.168-.203-.153Zm0 0" style="stroke:none;fill-rule:nonzero;fill:currentColor;fill-opacity:1"/><path d="M36.281 17.5c.332.336.27.578.278 1.031l-.004.324v.325c-.024 1.258-.192 2.496-1.102 3.437h-.351l.273-.355c.754-1.067.805-2.227.855-3.496l.016-.371zM27.773 2.145h.356c-.094.421-.152.652-.516.902-.605.234-1.199.297-1.843.367l-.38.047c-.628.074-1.238.129-1.87.11.789-.532 1.859-.548 2.785-.669l.36-.05c.288-.036.581-.075.87-.114ZM20.918 5c.148.45.059.598-.11 1.035l-.136.36-.11.273h-.234l-.117.238-.348-.062c-.445-.067-.87-.059-1.32-.04-.227-.019-.227-.019-.461-.257h.234v-.594h.239v.477l1.773-.121.227-.586c.23-.59.23-.59.363-.723m9.219 4.168c.234.238.234.238.281.684-.016.523-.168.82-.52 1.218-.472.336-.835.418-1.414.317-.43-.14-.722-.375-1.066-.672v-.238q.428.205.828.476c.578.094 1.04.086 1.543-.223.313-.511.336-.972.348-1.562m-19.617.355h.117c.238 1.899.238 1.899 0 2.383q-.398.001-.79.008l-.445.004a4.6 4.6 0 0 1-1.011-.133v-.117h2.007l-.007-1.324c-.004-.235.004-.469.007-.7Zm16.625-3.109h.277c.601 0 1.18.027 1.77.133l.117.238h-3.547v-.238c.465-.152.902-.137 1.383-.133M3.547 16.07h.117l-.117 4.407-.238-.122a11 11 0 0 1-.082-.863l-.012-.258c-.05-1.074-.024-2.14.332-3.164m6.851-1.187h.122l.035.406c.015.176.035.352.05.531l.024.266c.043.492.043.492.312.875.399.09.797.117 1.204.137l.25.015.605.032-.117.238-.793.012-.442.007c-.406-.02-.66-.058-1.011-.257-.325-.41-.262-.903-.25-1.403v-.25zm-5.316-4.168h.234l-.101.254c-.168.43-.309.867-.45 1.308a16 16 0 0 1-.628 1.653H4.02a6.23 6.23 0 0 1 1.062-3.215m5.082 12.379v.238c-1.055.52-2.184.945-3.355.598l-.309-.121v-.118l.418-.011c.988-.032 1.855-.082 2.777-.485.23-.101.23-.101.47-.101M31.82 11.145c.547.015.852.152 1.27.523.324.39.36.531.32 1.047l-.082.379a9 9 0 0 1-.406-.906c-.156-.426-.156-.426-.54-.641-.323-.055-.323-.055-.671-.074l-.356-.028-.273-.015c.281-.285.355-.278.738-.285m-21.539-4.36c-.27.274-.402.297-.77.387-.593.168-1.062.437-1.577.781-.25.14-.25.14-.606.14.082-.288.082-.288.234-.593.254-.066.254-.066.594-.117q.367-.172.723-.367c.48-.243.875-.239 1.402-.23m-6.5 14.644c.235.215.442.425.614.695.503.781 1.152 1.086 1.988 1.445v.121c-.883-.015-1.387-.328-2.012-.953-.328-.422-.59-.761-.59-1.308m26.829-9.762c.117.355.117.355.05.758-.055.453-.039.636.184 1.027.41.461.96.438 1.539.477l-.238.238c-.54-.012-.915-.05-1.344-.387-.305-.324-.453-.492-.547-.926.035-.5.078-.77.355-1.187M6.738 8.453l.352.117-.184.176c-.55.531-.98 1.059-1.351 1.73-.086-.199-.086-.199-.117-.476.183-.293.183-.293.44-.602l.259-.308c.195-.223.39-.434.601-.637m6.617.832v2.5h-.117l-.12-2.14h-.235v-.36h-1.067v-.117q.252-.04.504-.074l.282-.043c.28-.004.28-.004.753.234m2.598 5.36c-.117.117-.117.117-.324.132l-.27-.004h-.289l-.304-.003h-.305l-.75-.008-.121-.239c1.664-.285 1.664-.285 2.363.122m11.703 1.785.207.074c.52.18 1.016.328 1.563.402-.235.239-.235.239-.473.246-.957-.109-.957-.109-1.297-.484Zm0-1.907c.117.239.117.239.004.618-.125.453-.144.82-.125 1.289-.336-.34-.328-.598-.351-1.075.242-.601.242-.601.472-.832m-2.484-3.332c.758-.062 1.18-.015 1.773.477-.355.117-.355.117-.578.012l-.25-.133c-.277-.05-.277-.05-.558-.074l-.29-.028-.214-.015Zm0 0" style="stroke:none;fill-rule:nonzero;fill:currentColor;fill-opacity:1"/><path d="m11.938 8.906.308-.004c.281.028.281.028.637.266l-2.012.117c.219-.433.633-.375 1.066-.379M11.7 21.785h.238c-.168.402-.36.613-.704.871l-.246.192-.234.129-.356-.122.258-.203.328-.265.329-.262c.199-.164.199-.164.386-.34M19.383 3.93l.355.117c-.113.168-.222.34-.336.508l-.183.285q-.265.383-.547.754c.05-.68.336-1.117.71-1.664m2.364-1.313q-.286.182-.578.36l-.324.199c-.282.156-.282.156-.516.156v.238l-.238-.117c.98-1.043.98-1.043 1.656-.836m-8.391 11.906c.301.454.239.883.192 1.399l-.02.254c-.02.203-.035.406-.054.61h-.118q-.035-.532-.066-1.063l-.02-.309-.019-.289-.016-.273c.004-.207.004-.207.121-.329M3.781 21.43c.348.324.617.636.828 1.07l-.117.355a24 24 0 0 1-.355-.511l-.2-.29c-.156-.269-.156-.269-.156-.624M8.273 7.262l.235.12a6.6 6.6 0 0 1-.945.833l-.235-.121c.082-.29.082-.29.234-.594.305-.09.305-.09.594-.117Zm8.274-.356v.239l.824.238v.234q-.317-.076-.64-.16l-.364-.094c-.293-.101-.293-.101-.414-.34.356-.117.356-.117.594-.117m15.125.711c.465.14.812.281 1.183.598l-.117.355c-.18-.113-.355-.226-.535-.34l-.297-.195-.234-.18ZM14.656 19.168c-.172.398-.394.656-.71.95L13.59 20l.398-.418.227-.234c.203-.18.203-.18.441-.18m-9.574-8.453h.234c-.168.45-.37.879-.59 1.308-.09-.187-.09-.187-.117-.476.133-.297.297-.555.473-.832m21.981-9.524h.238v.239l.355.117c-.406.133-.734.113-1.152.066l-.356-.035-.265-.031V1.43l.226-.024.297-.031c.098-.008.196-.02.297-.027.242-.012.242-.012.36-.157M4.137 12.855h.355l-.355 1.075H4.02Zm22.808-.949.239.117c.086.41.086.41.117.832l-.238.239Zm5.91-3.574.829.715-.356.121c-.238-.219-.238-.219-.473-.477ZM22.809 1.906c.257-.035.257-.035.546-.023l.293.008.223.015c-.43.235-.812.301-1.297.356Zm2.601 9.641h.707v.121h-.707ZM10.047 6.07l.234.121-.355.356Zm0 5.953.473.122-.356.117Zm-5.793-1.191.355.121-.117.238-.238-.12Zm6.383 1.074.234.117-.117.239Zm21.98-.121.238.238-.238.122ZM31.2 13.57l.355.121Zm0 0" style="stroke:none;fill-rule:nonzero;fill:currentColor;fill-opacity:1"/><path d="m7.8 7.145.235.238h-.234Zm2.481-.954.117.239-.234-.121Zm-5.789 17.5.235.118Zm8.27-6.906.238.121Zm11.82-4.047.234.117Zm7.208-1.191.237.121ZM7.563 7.023l.238.122Zm2.835-.953.239.121Zm0 0" style="stroke:none;fill-rule:nonzero;fill:currentColor;fill-opacity:1"/></g></svg>